<?xml version="1.0" encoding="iso-8859-1"?>
<!-- Generator: Adobe Illustrator 19.0.0, SVG Export Plug-In . SVG Version: 6.00 Build 0)  -->
<svg version="1.1" id="Layer_1" xmlns="http://www.w3.org/2000/svg" xmlns:xlink="http://www.w3.org/1999/xlink" x="0px" y="0px"
	 viewBox="0 0 512.009 512.009" style="enable-background:new 0 0 512.009 512.009;" xml:space="preserve">
<g>
	<g>
		<g>
			<path d="M307.465,349.871h-0.085c-4.71,0-8.491,3.823-8.491,8.533s3.866,8.533,8.576,8.533c4.719,0,8.533-3.823,8.533-8.533
				S312.183,349.871,307.465,349.871z"/>
			<path d="M281.865,324.271h-0.085c-4.71,0-8.491,3.823-8.491,8.533c0,4.71,3.866,8.533,8.576,8.533
				c4.719,0,8.533-3.823,8.533-8.533C290.398,328.094,286.583,324.271,281.865,324.271z"/>
			<path d="M307.465,196.271h-0.085c-4.71,0-8.491,3.823-8.491,8.533c0,4.71,3.866,8.533,8.576,8.533
				c4.719,0,8.533-3.823,8.533-8.533C315.998,200.094,312.183,196.271,307.465,196.271z"/>
			<path d="M281.865,375.471h-0.085c-4.71,0-8.491,3.823-8.491,8.533s3.866,8.533,8.576,8.533c4.719,0,8.533-3.823,8.533-8.533
				S286.583,375.471,281.865,375.471z"/>
			<path d="M307.465,247.471h-0.085c-4.71,0-8.491,3.823-8.491,8.533c0,4.71,3.866,8.533,8.576,8.533
				c4.719,0,8.533-3.823,8.533-8.533C315.998,251.294,312.183,247.471,307.465,247.471z"/>
			<path d="M307.465,145.071h-0.085c-4.71,0-8.491,3.823-8.491,8.533c0,4.71,3.866,8.533,8.576,8.533
				c4.719,0,8.533-3.823,8.533-8.533C315.998,148.894,312.183,145.071,307.465,145.071z"/>
			<path d="M281.865,119.471h-0.085c-4.71,0-8.491,3.823-8.491,8.533c0,4.71,3.866,8.533,8.576,8.533
				c4.719,0,8.533-3.823,8.533-8.533C290.398,123.294,286.583,119.471,281.865,119.471z"/>
			<path d="M256.265,298.671h-0.085c-4.71,0-8.491,3.823-8.491,8.533s3.866,8.533,8.576,8.533c4.719,0,8.533-3.823,8.533-8.533
				S260.983,298.671,256.265,298.671z"/>
			<path d="M256.265,349.871h-0.085c-4.71,0-8.491,3.823-8.491,8.533s3.866,8.533,8.576,8.533c4.719,0,8.533-3.823,8.533-8.533
				S260.983,349.871,256.265,349.871z"/>
			<path d="M281.865,273.071h-0.085c-4.71,0-8.491,3.823-8.491,8.533s3.866,8.533,8.576,8.533c4.719,0,8.533-3.823,8.533-8.533
				S286.583,273.071,281.865,273.071z"/>
			<path d="M281.865,170.671h-0.085c-4.71,0-8.491,3.823-8.491,8.533s3.866,8.533,8.576,8.533c4.719,0,8.533-3.823,8.533-8.533
				S286.583,170.671,281.865,170.671z"/>
			<path d="M281.865,221.871h-0.085c-4.71,0-8.491,3.823-8.491,8.533s3.866,8.533,8.576,8.533c4.719,0,8.533-3.823,8.533-8.533
				S286.583,221.871,281.865,221.871z"/>
			<path d="M358.665,247.471h-0.085c-4.71,0-8.491,3.823-8.491,8.533c0,4.71,3.866,8.533,8.576,8.533
				c4.719,0,8.533-3.823,8.533-8.533C367.198,251.294,363.383,247.471,358.665,247.471z"/>
			<path d="M384.265,273.071h-0.085c-4.71,0-8.491,3.823-8.491,8.533s3.866,8.533,8.576,8.533c4.719,0,8.533-3.823,8.533-8.533
				S388.983,273.071,384.265,273.071z"/>
			<path d="M358.665,298.671h-0.085c-4.71,0-8.491,3.823-8.491,8.533s3.866,8.533,8.576,8.533c4.719,0,8.533-3.823,8.533-8.533
				S363.383,298.671,358.665,298.671z"/>
			<path d="M384.265,221.871h-0.085c-4.71,0-8.491,3.823-8.491,8.533s3.866,8.533,8.576,8.533c4.719,0,8.533-3.823,8.533-8.533
				S388.983,221.871,384.265,221.871z"/>
			<path d="M256.009,85.338c-94.106,0-170.667,76.561-170.667,170.667s76.561,170.667,170.667,170.667
				c70.323,0,132.582-42.206,158.609-107.529c1.741-4.378-0.393-9.344-4.77-11.085c-4.386-1.758-9.344,0.393-11.085,4.77
				c-23.433,58.786-79.462,96.777-142.754,96.777c-84.693,0-153.6-68.907-153.6-153.6s68.907-153.6,153.6-153.6
				s153.6,68.907,153.6,153.6c0,7.501-0.546,15.044-1.621,22.434c-0.691,4.659,2.543,8.994,7.202,9.677
				c4.642,0.683,9.003-2.543,9.677-7.211c1.203-8.201,1.809-16.58,1.809-24.9C426.675,161.899,350.114,85.338,256.009,85.338z"/>
			<path d="M333.065,170.671h-0.085c-4.71,0-8.491,3.823-8.491,8.533s3.866,8.533,8.576,8.533c4.719,0,8.533-3.823,8.533-8.533
				S337.784,170.671,333.065,170.671z"/>
			<path d="M358.665,196.271h-0.085c-4.71,0-8.491,3.823-8.491,8.533c0,4.71,3.866,8.533,8.576,8.533
				c4.719,0,8.533-3.823,8.533-8.533C367.198,200.094,363.383,196.271,358.665,196.271z"/>
			<path d="M333.065,221.871h-0.085c-4.71,0-8.491,3.823-8.491,8.533s3.866,8.533,8.576,8.533c4.719,0,8.533-3.823,8.533-8.533
				S337.784,221.871,333.065,221.871z"/>
			<path d="M307.465,298.671h-0.085c-4.71,0-8.491,3.823-8.491,8.533s3.866,8.533,8.576,8.533c4.719,0,8.533-3.823,8.533-8.533
				S312.183,298.671,307.465,298.671z"/>
			<path d="M333.065,273.071h-0.085c-4.71,0-8.491,3.823-8.491,8.533s3.866,8.533,8.576,8.533c4.719,0,8.533-3.823,8.533-8.533
				S337.784,273.071,333.065,273.071z"/>
			<path d="M333.065,324.271h-0.085c-4.71,0-8.491,3.823-8.491,8.533c0,4.71,3.866,8.533,8.576,8.533
				c4.719,0,8.533-3.823,8.533-8.533C341.598,328.094,337.784,324.271,333.065,324.271z"/>
			<path d="M230.665,170.671h-0.085c-4.71,0-8.491,3.823-8.491,8.533s3.866,8.533,8.576,8.533c4.719,0,8.533-3.823,8.533-8.533
				S235.383,170.671,230.665,170.671z"/>
			<path d="M179.465,324.271h-0.085c-4.71,0-8.491,3.823-8.491,8.533c0,4.71,3.866,8.533,8.576,8.533
				c4.719,0,8.533-3.823,8.533-8.533C187.998,328.094,184.183,324.271,179.465,324.271z"/>
			<path d="M205.065,196.271h-0.085c-4.71,0-8.491,3.823-8.491,8.533c0,4.71,3.866,8.533,8.576,8.533
				c4.719,0,8.533-3.823,8.533-8.533C213.598,200.094,209.783,196.271,205.065,196.271z"/>
			<path d="M179.465,273.071h-0.085c-4.71,0-8.491,3.823-8.491,8.533s3.866,8.533,8.576,8.533c4.719,0,8.533-3.823,8.533-8.533
				S184.183,273.071,179.465,273.071z"/>
			<path d="M179.465,170.671h-0.085c-4.71,0-8.491,3.823-8.491,8.533s3.866,8.533,8.576,8.533c4.719,0,8.533-3.823,8.533-8.533
				S184.183,170.671,179.465,170.671z"/>
			<path d="M205.065,145.071h-0.085c-4.71,0-8.491,3.823-8.491,8.533c0,4.71,3.866,8.533,8.576,8.533
				c4.719,0,8.533-3.823,8.533-8.533C213.598,148.894,209.783,145.071,205.065,145.071z"/>
			<path d="M179.465,221.871h-0.085c-4.71,0-8.491,3.823-8.491,8.533s3.866,8.533,8.576,8.533c4.719,0,8.533-3.823,8.533-8.533
				S184.183,221.871,179.465,221.871z"/>
			<path d="M128.265,273.071h-0.085c-4.71,0-8.491,3.823-8.491,8.533s3.857,8.533,8.576,8.533s8.533-3.823,8.533-8.533
				S132.983,273.071,128.265,273.071z"/>
			<path d="M128.265,221.871h-0.085c-4.71,0-8.491,3.823-8.491,8.533s3.857,8.533,8.576,8.533s8.533-3.823,8.533-8.533
				S132.983,221.871,128.265,221.871z"/>
			<path d="M153.865,247.471h-0.085c-4.71,0-8.491,3.823-8.491,8.533c0,4.71,3.866,8.533,8.576,8.533
				c4.719,0,8.533-3.823,8.533-8.533C162.398,251.294,158.583,247.471,153.865,247.471z"/>
			<path d="M153.865,196.271h-0.085c-4.71,0-8.491,3.823-8.491,8.533c0,4.71,3.866,8.533,8.576,8.533
				c4.719,0,8.533-3.823,8.533-8.533C162.398,200.094,158.583,196.271,153.865,196.271z"/>
			<path d="M153.865,298.671h-0.085c-4.71,0-8.491,3.823-8.491,8.533s3.866,8.533,8.576,8.533c4.719,0,8.533-3.823,8.533-8.533
				S158.583,298.671,153.865,298.671z"/>
			<path d="M230.665,273.071h-0.085c-4.71,0-8.491,3.823-8.491,8.533s3.866,8.533,8.576,8.533c4.719,0,8.533-3.823,8.533-8.533
				S235.383,273.071,230.665,273.071z"/>
			<path d="M230.665,324.271h-0.085c-4.71,0-8.491,3.823-8.491,8.533c0,4.71,3.866,8.533,8.576,8.533
				c4.719,0,8.533-3.823,8.533-8.533C239.198,328.094,235.383,324.271,230.665,324.271z"/>
			<path d="M256.265,247.471h-0.085c-4.71,0-8.491,3.823-8.491,8.533c0,4.71,3.866,8.533,8.576,8.533
				c4.719,0,8.533-3.823,8.533-8.533C264.798,251.294,260.983,247.471,256.265,247.471z"/>
			<path d="M230.665,375.471h-0.085c-4.71,0-8.491,3.823-8.491,8.533s3.866,8.533,8.576,8.533c4.719,0,8.533-3.823,8.533-8.533
				S235.383,375.471,230.665,375.471z"/>
			<path d="M256.265,196.271h-0.085c-4.71,0-8.491,3.823-8.491,8.533c0,4.71,3.866,8.533,8.576,8.533
				c4.719,0,8.533-3.823,8.533-8.533C264.798,200.094,260.983,196.271,256.265,196.271z"/>
			<path d="M256.265,145.071h-0.085c-4.71,0-8.491,3.823-8.491,8.533c0,4.71,3.866,8.533,8.576,8.533
				c4.719,0,8.533-3.823,8.533-8.533C264.798,148.894,260.983,145.071,256.265,145.071z"/>
			<path d="M205.065,349.871h-0.085c-4.71,0-8.491,3.823-8.491,8.533s3.866,8.533,8.576,8.533c4.719,0,8.533-3.823,8.533-8.533
				S209.783,349.871,205.065,349.871z"/>
			<path d="M205.065,298.671h-0.085c-4.71,0-8.491,3.823-8.491,8.533s3.866,8.533,8.576,8.533c4.719,0,8.533-3.823,8.533-8.533
				S209.783,298.671,205.065,298.671z"/>
			<path d="M205.065,247.471h-0.085c-4.71,0-8.491,3.823-8.491,8.533c0,4.71,3.866,8.533,8.576,8.533
				c4.719,0,8.533-3.823,8.533-8.533C213.598,251.294,209.783,247.471,205.065,247.471z"/>
			<path d="M230.665,119.471h-0.085c-4.71,0-8.491,3.823-8.491,8.533c0,4.71,3.866,8.533,8.576,8.533
				c4.719,0,8.533-3.823,8.533-8.533C239.198,123.294,235.383,119.471,230.665,119.471z"/>
			<path d="M230.665,221.871h-0.085c-4.71,0-8.491,3.823-8.491,8.533s3.866,8.533,8.576,8.533c4.719,0,8.533-3.823,8.533-8.533
				S235.383,221.871,230.665,221.871z"/>
			<path d="M512.009,256.004c0-12.203-6.844-23.322-18.807-31.232c9.506-10.726,13.244-23.236,10.086-35.021
				c-3.157-11.793-12.646-20.762-26.249-25.31c6.4-12.817,6.767-25.865,0.666-36.437c-5.982-10.385-17.544-16.666-32.017-17.527
				c2.935-14.131-0.034-26.871-8.67-35.49c-8.405-8.431-21.197-11.563-35.465-8.644c-0.811-14.404-6.98-25.941-17.545-32.043
				c-10.291-5.939-23.62-5.632-36.446,0.717c-4.531-13.628-13.5-23.125-25.301-26.291c-11.529-3.098-24.337,0.717-35.012,10.112
				C279.339,6.857,268.22,0.004,256,0.004c-12.211,0-23.33,6.852-31.249,18.833c-10.667-9.387-23.467-13.201-35.012-10.112
				c-11.793,3.157-20.762,12.663-25.301,26.291C151.612,28.685,138.291,28.369,128,34.3c-10.564,6.101-16.734,17.638-17.553,32.051
				c-14.251-2.901-27.042,0.213-35.465,8.636c-8.627,8.619-11.597,21.359-8.661,35.49c-14.464,0.87-26.018,7.142-32.017,17.527
				c-6.101,10.564-5.734,23.612,0.674,36.454c-13.602,4.54-23.091,13.5-26.257,25.284c-3.157,11.784,0.58,24.294,10.095,35.038
				C6.852,232.683,0.009,243.793,0,256.004c0,12.194,6.844,23.313,18.816,31.232C9.31,297.963,5.572,310.464,8.721,322.257
				c3.157,11.785,12.646,20.753,26.257,25.301c-6.409,12.826-6.784,25.873-0.683,36.446c5.99,10.377,17.553,16.657,32.026,17.527
				c-2.944,14.114,0.034,26.854,8.653,35.49c8.422,8.422,21.248,11.554,35.473,8.636c0.819,14.396,6.98,25.941,17.544,32.051
				c10.291,5.922,23.612,5.615,36.446-0.717c4.531,13.611,13.5,23.117,25.293,26.291c11.52,3.089,24.346-0.725,35.029-10.121
				c7.902,11.972,19.021,18.833,31.223,18.842h0.009c12.211,0,23.339-6.852,31.258-18.833c10.658,9.378,23.407,13.193,35.004,10.112
				c11.802-3.157,20.77-12.664,25.31-26.291c12.817,6.332,26.138,6.647,36.429,0.725c10.564-6.101,16.742-17.638,17.562-32.06
				c14.216,2.901,27.034-0.205,35.465-8.627c8.627-8.619,11.597-21.367,8.661-35.499c14.464-0.862,26.018-7.134,32.026-17.51
				c6.101-10.573,5.726-23.62-0.683-36.463c13.602-4.54,23.091-13.5,26.266-25.284c3.157-11.776-0.58-24.294-10.095-35.038
				C505.165,279.326,512.009,268.215,512.009,256.004z M458.735,291.307l16.205,2.116c9.335,7.595,13.901,16.811,11.861,24.431
				c-2.048,7.612-10.59,13.303-22.451,15.198l-15.138-6.255c-4.352-1.809-9.344,0.273-11.145,4.625s0.265,9.344,4.625,11.145
				l15.096,6.246c7.066,9.754,9.079,19.831,5.146,26.658c-3.9,6.741-13.858,10.027-25.779,8.755l-12.843-9.839
				c-3.738-2.85-9.088-2.15-11.972,1.587c-2.867,3.746-2.15,9.097,1.587,11.964l12.809,9.822c4.378,11.332,3.78,21.641-1.783,27.196
				c-3.9,3.9-9.318,4.719-13.184,4.719c-4.335,0-9.173-1.152-14.071-3.046l-9.762-12.706c-2.867-3.746-8.235-4.437-11.964-1.57
				c-3.738,2.876-4.437,8.235-1.57,11.972l9.83,12.792c1.297,12.083-1.954,21.888-8.764,25.822
				c-6.844,3.925-17.041,1.801-26.624-5.129l-6.272-15.121c-1.809-4.352-6.784-6.409-11.162-4.617
				c-4.352,1.809-6.417,6.801-4.608,11.162l6.255,15.087c-1.894,11.878-7.595,20.437-15.215,22.477
				c-7.62,2.074-16.913-2.637-24.397-11.836l-2.15-16.23c-0.614-4.676-4.924-7.91-9.583-7.339c-4.668,0.614-7.953,4.907-7.339,9.574
				l2.15,16.205c-4.915,10.974-12.629,17.766-20.523,17.766s-15.607-6.784-20.506-17.749l2.125-16.23
				c0.614-4.676-2.679-8.96-7.356-9.566c-4.651-0.58-8.96,2.671-9.566,7.347l-2.125,16.205
				c-7.509,9.207-16.845,13.892-24.414,11.853c-7.629-2.048-13.321-10.598-15.206-22.46l6.246-15.121
				c1.809-4.352-0.265-9.344-4.617-11.153c-4.352-1.783-9.353,0.273-11.153,4.625l-6.238,15.104
				c-9.609,6.938-19.84,9.088-26.658,5.137c-6.818-3.942-10.052-13.73-8.755-25.788l9.83-12.834
				c2.867-3.738,2.15-9.097-1.587-11.964c-3.738-2.85-9.079-2.15-11.964,1.579l-9.737,12.706c-4.898,1.894-9.754,3.046-14.089,3.046
				c-3.866,0-9.293-0.828-13.184-4.719c-5.564-5.564-6.161-15.863-1.783-27.179l12.817-9.847c3.738-2.867,4.437-8.218,1.57-11.955
				c-2.876-3.755-8.243-4.446-11.964-1.57l-12.8,9.822c-11.964,1.263-21.922-2.014-25.813-8.755
				c-3.942-6.835-1.929-16.905,5.129-26.641l15.113-6.263c4.352-1.801,6.426-6.801,4.617-11.153
				c-1.801-4.352-6.801-6.426-11.153-4.617l-15.104,6.263c-11.87-1.894-20.429-7.586-22.468-15.215
				c-2.039-7.629,2.517-16.836,11.844-24.405l16.222-2.142c4.676-0.614,7.962-4.907,7.347-9.574
				c-0.623-4.668-4.932-7.962-9.583-7.339l-16.196,2.133c-10.991-4.907-17.775-12.621-17.775-20.514
				c0.009-7.902,6.784-15.616,17.766-20.506l16.213,2.133c0.375,0.043,0.751,0.068,1.126,0.068c4.215,0,7.885-3.123,8.448-7.424
				c0.614-4.668-2.679-8.96-7.347-9.574l-16.213-2.133c-9.335-7.578-13.892-16.785-11.853-24.405
				c2.048-7.629,10.598-13.321,22.46-15.215l15.113,6.263c1.075,0.435,2.176,0.649,3.268,0.649c3.345,0,6.519-1.988,7.885-5.265
				c1.809-4.361-0.265-9.353-4.617-11.153l-15.113-6.255c-7.049-9.737-9.071-19.814-5.129-26.65
				c3.9-6.741,13.85-10.018,25.796-8.755l12.817,9.839c1.545,1.186,3.371,1.758,5.188,1.758c2.56,0,5.094-1.152,6.775-3.337
				c2.867-3.738,2.167-9.096-1.57-11.964l-12.817-9.839c-4.369-11.324-3.78-21.623,1.783-27.187c3.9-3.9,9.318-4.719,13.184-4.719
				c4.343,0,9.199,1.152,14.097,3.055l9.737,12.698c1.672,2.185,4.207,3.337,6.775,3.337c1.809,0,3.635-0.572,5.18-1.758
				c3.746-2.867,4.454-8.226,1.587-11.964l-9.83-12.826c-1.297-12.075,1.937-21.862,8.755-25.796
				c6.861-3.951,17.067-1.809,26.658,5.137l6.238,15.104c1.365,3.285,4.54,5.274,7.893,5.274c1.084,0,2.193-0.213,3.26-0.657
				c4.352-1.801,6.426-6.793,4.617-11.145l-6.255-15.121c1.894-11.878,7.586-20.42,15.206-22.46
				c7.637-2.031,16.939,2.645,24.422,11.853l2.133,16.213c0.563,4.292,4.232,7.415,8.448,7.415c0.367,0,0.742-0.026,1.126-0.068
				c4.668-0.614,7.962-4.907,7.347-9.574l-2.133-16.239c4.898-10.965,12.612-17.741,20.506-17.741s15.607,6.776,20.497,17.741
				l-2.116,16.239c-0.606,4.676,2.679,8.96,7.356,9.566c0.375,0.051,0.751,0.077,1.118,0.077c4.224,0,7.885-3.132,8.448-7.433
				l2.116-16.188c7.492-9.207,16.785-13.901,24.422-11.861c7.629,2.039,13.32,10.581,15.206,22.443l-6.255,15.138
				c-1.801,4.352,0.273,9.344,4.634,11.145c1.067,0.435,2.167,0.649,3.251,0.649c3.354,0,6.528-1.988,7.893-5.274l6.238-15.087
				c9.6-6.955,19.806-9.105,26.658-5.146c6.818,3.934,10.061,13.722,8.764,25.771l-9.839,12.851
				c-2.867,3.738-2.15,9.096,1.587,11.964c1.545,1.178,3.371,1.758,5.188,1.758c2.56,0,5.094-1.152,6.776-3.345l9.719-12.689
				c4.907-1.911,9.771-3.063,14.114-3.063c3.857,0,9.276,0.819,13.175,4.727c5.564,5.564,6.17,15.855,1.792,27.17l-12.826,9.856
				c-3.738,2.867-4.437,8.226-1.57,11.964c1.681,2.185,4.216,3.328,6.776,3.328c1.818,0,3.644-0.572,5.197-1.766l12.8-9.83
				c11.938-1.28,21.914,2.014,25.805,8.764c3.942,6.835,1.937,16.896-5.111,26.624l-15.138,6.281
				c-4.352,1.809-6.409,6.801-4.608,11.153c1.365,3.285,4.54,5.265,7.885,5.265c1.092,0,2.202-0.213,3.268-0.649l15.104-6.272
				c11.878,1.894,20.437,7.586,22.477,15.223c2.039,7.629-2.509,16.836-11.836,24.397l-16.239,2.15
				c-4.676,0.614-7.962,4.907-7.339,9.574c0.563,4.292,4.233,7.415,8.439,7.415c0.375,0,0.751-0.026,1.135-0.077l16.196-2.142
				c10.991,4.898,17.783,12.621,17.783,20.523c0,7.893-6.775,15.607-17.741,20.506l-16.247-2.133
				c-4.676-0.572-8.969,2.68-9.574,7.356C450.765,286.409,454.067,290.692,458.735,291.307z"/>
		</g>
	</g>
</g>
<g>
</g>
<g>
</g>
<g>
</g>
<g>
</g>
<g>
</g>
<g>
</g>
<g>
</g>
<g>
</g>
<g>
</g>
<g>
</g>
<g>
</g>
<g>
</g>
<g>
</g>
<g>
</g>
<g>
</g>
</svg>
